<?xml version="1.0" encoding="UTF-8" standalone="no"?>
<svg
   xmlns:dc="http://purl.org/dc/elements/1.1/"
   xmlns:cc="http://creativecommons.org/ns#"
   xmlns:rdf="http://www.w3.org/1999/02/22-rdf-syntax-ns#"
   xmlns:svg="http://www.w3.org/2000/svg"
   xmlns="http://www.w3.org/2000/svg"
   xmlns:sodipodi="http://sodipodi.sourceforge.net/DTD/sodipodi-0.dtd"
   xmlns:inkscape="http://www.inkscape.org/namespaces/inkscape"
   width="20.812164mm"
   height="8mm"
   viewBox="0 0 20.812164 8.0000002"
   version="1.1"
   id="calendar-tile"
   sodipodi:docname="calendar-tile-2024-fire.svg"
   inkscape:version="0.92.3 (2405546, 2018-03-11)">
  <metadata
     id="metadata3779">
    <rdf:RDF>
      <cc:Work
         rdf:about="">
        <dc:format>image/svg+xml</dc:format>
        <dc:type
           rdf:resource="http://purl.org/dc/dcmitype/StillImage" />
        <dc:title></dc:title>
      </cc:Work>
    </rdf:RDF>
  </metadata>
  <defs
     id="defs3777" />
  <sodipodi:namedview
     pagecolor="#ffffff"
     bordercolor="#666666"
     borderopacity="1"
     objecttolerance="10"
     gridtolerance="10"
     guidetolerance="10"
     inkscape:pageopacity="0"
     inkscape:pageshadow="2"
     inkscape:window-width="1920"
     inkscape:window-height="1017"
     id="namedview3775"
     showgrid="false"
     inkscape:zoom="6.5128133"
     inkscape:cx="-5.1592212"
     inkscape:cy="-18.001505"
     inkscape:window-x="-8"
     inkscape:window-y="-8"
     inkscape:window-maximized="1"
     inkscape:current-layer="calendar-tile" />
  <g
     id="g1514"
     transform="translate(0.10156261,-2.8319092)">
    <path
       inkscape:connector-curvature="0"
       id="path4770"
       d="M 2.0030146,10.802504 C 2.0286593,10.500601 2.003874,9.4810189 2.6983718,8.5689943 3.3928747,7.6569692 2.6344853,9.3452965 2.6911981,9.2728973 2.7479108,9.2004977 4.9180712,7.9142887 4.4012922,6.5406407 3.8845101,5.1669926 4.3615501,5.4637565 4.3896913,5.4060133 4.4178324,5.3482706 7.1291136,6.4122032 6.8835146,7.6787351 6.6379127,8.9452671 6.3042025,8.61831 6.3339539,8.7185529 c 0.029756,0.1002427 0.1023287,1.5789801 0.1621272,1.8081901 0.059797,0.229211 0.059797,0.229211 0.059797,0.229211 z"
       style="fill:#ffd42a;stroke:#000000;stroke-width:0.26458332px;stroke-linecap:butt;stroke-linejoin:miter;stroke-opacity:1" />
    <path
       inkscape:connector-curvature="0"
       id="path4772"
       d="m 3.2534204,10.875903 c 0,0 0.1279109,-1.5382425 0.596906,-0.62375 0.4689952,0.914493 -0.3345922,-0.4131311 1.1793011,-1.2617145 1.5138953,-0.8485832 0.7905171,0.049373 0.7622341,0.092754 -0.028288,0.04338 -0.6773525,1.1847625 0.141008,1.1476675 0.8183615,-0.03709 0.1779292,0.544008 0.1779292,0.544008 z"
       style="fill:#c83737;stroke:#ff6600;stroke-width:0.26458332px;stroke-linecap:butt;stroke-linejoin:miter;stroke-opacity:1" />
  </g>
  <g
     id="g1510"
     transform="translate(0.10156261,-2.8319092)">
    <path
       inkscape:connector-curvature="0"
       id="path4776"
       d="m 14.319542,7.2778887 c 0.12083,-0.1028034 1.496403,-0.6653346 0.255496,-2.8262006 -1.240911,-2.1608656 2.505369,0.665046 2.655232,1.4151165 0.149864,0.7500702 0.633849,2.3905221 0.110943,2.903708 -0.522907,0.5131861 1.463255,0.066293 1.171419,-0.6620117 -0.291835,-0.7283053 0.553187,0.4615565 0.572252,0.3394799 0.01907,-0.1220764 0.330206,1.0078626 -0.226293,1.7086552 -0.556498,0.700792 -0.556498,0.700792 -0.556498,0.700792 l -4.808003,-0.0575 0.500508,-1.5279838 0.314185,-1.0595186 z"
       style="fill:#ffd42a;stroke:#000000;stroke-width:0.26458332px;stroke-linecap:butt;stroke-linejoin:miter;stroke-opacity:1" />
    <path
       inkscape:connector-curvature="0"
       id="path4778"
       d="m 14.308784,8.2124236 c 0,0 0.12353,0.1612457 0.22488,0.1398958 0.10135,-0.021349 0.947993,-0.6597275 0.947993,-0.6597275 l 0.47626,-1.1018028 c 0,0 0.09533,-0.6103824 0.121245,-0.062181 0.02593,0.5482017 -0.324527,2.0346765 -0.05757,2.3163371 0.266956,0.2816609 0.532873,0.4617641 0.655573,0.541764 0.122699,0.08 0.145502,0.3235298 0.425918,-0.065296 0.280414,-0.3888251 0.153602,1.1156768 0.153602,1.1156768 l -0.158752,0.367268 c 0,0 -0.811628,0.08955 -0.853292,-0.01159 -0.04166,-0.101142 -0.05038,-0.9542235 -0.459725,-1.2547417 -0.409346,-0.3005184 -0.135745,0.6311087 -0.135745,0.6311087 0,0 -0.387993,-0.1991687 -0.473601,-0.6248785 C 15.089962,9.1185466 15.4083,8.465257 15.4083,8.465257 l -0.425085,0.1465416 c -0.414287,1.2027383 -0.473352,1.3861644 -0.412003,1.4261644 0.06135,0.04 -0.35381,-0.8292395 -0.35381,-0.8292395 z"
       style="fill:#c83737;stroke:#ff6600;stroke-width:0.26458332px;stroke-linecap:butt;stroke-linejoin:miter;stroke-opacity:1" />
  </g>
  <path
     style="fill:none;stroke:#000000;stroke-width:0.80445415;stroke-linecap:butt;stroke-linejoin:miter;stroke-miterlimit:4;stroke-dasharray:none;stroke-opacity:1"
     d="M 1.9707375,8.2306558 H 18.525444"
     id="path1471"
     inkscape:connector-curvature="0" />
  <g
     id="g1506"
     transform="translate(0.10156261,-2.8319092)">
    <path
       sodipodi:nodetypes="ccscccccccccc"
       inkscape:connector-curvature="0"
       id="path4764"
       d="m 6.5558847,10.755954 c 0,0 -0.3636403,-1.8492219 1.0866395,-3.3004376 C 9.0927999,6.004301 8.3119469,5.4951853 8.5838037,5.3918588 8.8556606,5.288532 9.0570545,6.7228603 9.0570545,6.7228603 L 9.1595002,6.908543 C 9.1282179,7.0454093 11.826958,5.3198608 10.21344,4.7406616 c 2.002531,1.5780166 2.718518,0.7324271 2.374882,3.1670226 -0.309483,2.0428342 1.296109,-1.0761786 1.307974,-1.3204858 0.01186,-0.244307 0.1121,-0.5175092 0.1121,-0.5175092 L 14.10894,6.312111 c 0,0 0.563391,1.7179044 0.09942,2.6993916 -0.463973,0.9814872 -0.714272,1.7884234 -0.714272,1.7884234 z"
       style="fill:#ffcc00;stroke:#000000;stroke-width:0.26458332px;stroke-linecap:butt;stroke-linejoin:miter;stroke-opacity:1" />
    <path
       inkscape:connector-curvature="0"
       id="path4774"
       d="m 7.460128,10.689253 c 0,0 -0.034194,-1.9387734 2.570512,-2.8703291 2.604701,-0.9315554 -0.1360425,-2.0670066 1.449252,-1.5517521 1.585294,0.5152545 0.149966,2.0237728 0.149966,2.0237728 0,0 -0.80867,0.9850115 0.0075,0.732481 0.816158,-0.2525306 1.093449,0.1755505 1.093449,0.1755505 l -0.244278,1.3957929 c 0,0 -5.02639,0.09448 -5.02639,0.09448 z"
       style="fill:#a02c2c;stroke:#ff6600;stroke-width:0.26458332px;stroke-linecap:butt;stroke-linejoin:miter;stroke-opacity:1" />
    <path
       inkscape:connector-curvature="0"
       id="path4768"
       d="m 7.460128,10.689253 c 0.1000962,-0.04412 0.9186035,-0.06685 0.9477686,-0.02405 0.029169,0.04279 0.1085856,-0.618757 0.3218186,-0.8363953 0.213231,-0.2176382 -0.2223098,0.7348303 0.5384559,0.6839603 0.7607659,-0.05087 -1.2554104,-0.325583 0.9689639,-1.9283517 2.224378,-1.602769 -0.121172,0.5551159 0.198912,0.9540318 0.320085,0.3989155 0.82629,0.3315102 0.82629,0.3315102 l 0.265717,-0.2657178 0.04559,0.256137 0.03047,0.1347152 0.10508,0.4352623 0.03137,0.258229 z"
       style="fill:#ffcc00;stroke:#ff6600;stroke-width:0.26458332px;stroke-linecap:butt;stroke-linejoin:miter;stroke-opacity:1"
       sodipodi:nodetypes="cccsscccccccc" />
  </g>
</svg>
